<svg width="158" height="60" viewBox="0 0 158 60" fill="none" xmlns="http://www.w3.org/2000/svg">
<rect width="158" height="60" rx="3" fill="white"/>
<path d="M34.4 50L28.1 46V36.1H34.4V50Z" fill="#1663A3"/>
<path d="M21.8 50L28.2 46V36.1H21.8V50V50Z" fill="#0F3B6E"/>
<path d="M27.9 42.2C36.7 42.2 43.8 35 43.8 26.1C43.8 17.2 36.6 10 27.9 10C19.2 10 12 17.2 12 26.1C12 35 19.1 42.2 27.9 42.2Z" fill="#00C3A5"/>
<path d="M28.1 42.2C36.9 42.2 44 35 44 26.1C44 17.2 36.9 10 28.1 10V42.2Z" fill="#71D3C0"/>
<path fill-rule="evenodd" clip-rule="evenodd" d="M28.9 30.3C29.2 29.4 30.3 28.2 31.2 27.6L33.4 31.3L31.1 33L28.9 30.3ZM25.7 33L22.6 31C25 26.6 29.3 23.4 34.5 22.8L35.3 25.5C31 26.4 27.4 29.2 25.7 33ZM26.3 23.9L26.7 19.2H29.5L29.8 23.4C28.2 23.9 27.3 24.4 26.2 25C25.4 25.5 24.7 26 24.1 26.7L21 25.4L21.8 22.7L26.3 23.9Z" fill="white"/>
<path d="M61.6348 25H60.1523L56.3496 18.9473V25H54.8672V16.4688H56.3496L60.1641 22.5449V16.4688H61.6348V25ZM67.0371 25C66.9746 24.8789 66.9199 24.6816 66.873 24.4082C66.4199 24.8809 65.8652 25.1172 65.209 25.1172C64.5723 25.1172 64.0527 24.9355 63.6504 24.5723C63.248 24.209 63.0469 23.7598 63.0469 23.2246C63.0469 22.5488 63.2969 22.0312 63.7969 21.6719C64.3008 21.3086 65.0195 21.127 65.9531 21.127H66.8262V20.7109C66.8262 20.3828 66.7344 20.1211 66.5508 19.9258C66.3672 19.7266 66.0879 19.627 65.7129 19.627C65.3887 19.627 65.123 19.709 64.916 19.873C64.709 20.0332 64.6055 20.2383 64.6055 20.4883H63.1816C63.1816 20.1406 63.2969 19.8164 63.5273 19.5156C63.7578 19.2109 64.0703 18.9727 64.4648 18.8008C64.8633 18.6289 65.3066 18.543 65.7949 18.543C66.5371 18.543 67.1289 18.7305 67.5703 19.1055C68.0117 19.4766 68.2383 20 68.25 20.6758V23.5352C68.25 24.1055 68.3301 24.5605 68.4902 24.9004V25H67.0371ZM65.4727 23.9746C65.7539 23.9746 66.0176 23.9062 66.2637 23.7695C66.5137 23.6328 66.7012 23.4492 66.8262 23.2188V22.0234H66.0586C65.5312 22.0234 65.1348 22.1152 64.8691 22.2988C64.6035 22.4824 64.4707 22.7422 64.4707 23.0781C64.4707 23.3516 64.5605 23.5703 64.7402 23.7344C64.9238 23.8945 65.168 23.9746 65.4727 23.9746ZM71.2266 18.6602V25.5625C71.2266 26.2109 71.0645 26.7051 70.7402 27.0449C70.4199 27.3887 69.9492 27.5605 69.3281 27.5605C69.0664 27.5605 68.8145 27.5273 68.5723 27.4609V26.3359C68.7207 26.3711 68.8887 26.3887 69.0762 26.3887C69.5488 26.3887 69.791 26.1309 69.8027 25.6152V18.6602H71.2266ZM69.6797 17.0137C69.6797 16.7949 69.748 16.6133 69.8848 16.4688C70.0254 16.3242 70.2246 16.252 70.4824 16.252C70.7402 16.252 70.9395 16.3242 71.0801 16.4688C71.2207 16.6133 71.291 16.7949 71.291 17.0137C71.291 17.2285 71.2207 17.4082 71.0801 17.5527C70.9395 17.6934 70.7402 17.7637 70.4824 17.7637C70.2246 17.7637 70.0254 17.6934 69.8848 17.5527C69.748 17.4082 69.6797 17.2285 69.6797 17.0137ZM74.2676 25H72.8438V16H74.2676V25ZM78.6152 25.1172C77.7129 25.1172 76.9805 24.834 76.418 24.2676C75.8594 23.6973 75.5801 22.9395 75.5801 21.9941V21.8184C75.5801 21.1855 75.7012 20.6211 75.9434 20.125C76.1895 19.625 76.5332 19.2363 76.9746 18.959C77.416 18.6816 77.9082 18.543 78.4512 18.543C79.3145 18.543 79.9805 18.8184 80.4492 19.3691C80.9219 19.9199 81.1582 20.6992 81.1582 21.707V22.2812H77.0156C77.0586 22.8047 77.2324 23.2188 77.5371 23.5234C77.8457 23.8281 78.2324 23.9805 78.6973 23.9805C79.3496 23.9805 79.8809 23.7168 80.291 23.1895L81.0586 23.9219C80.8047 24.3008 80.4648 24.5957 80.0391 24.8066C79.6172 25.0137 79.1426 25.1172 78.6152 25.1172ZM78.4453 19.6855C78.0547 19.6855 77.7383 19.8223 77.4961 20.0957C77.2578 20.3691 77.1055 20.75 77.0391 21.2383H79.752V21.1328C79.7207 20.6562 79.5938 20.2969 79.3711 20.0547C79.1484 19.8086 78.8398 19.6855 78.4453 19.6855ZM87.8203 21.8945C87.8203 22.875 87.5977 23.6582 87.1523 24.2441C86.707 24.8262 86.1094 25.1172 85.3594 25.1172C84.6641 25.1172 84.1074 24.8887 83.6895 24.4316V27.4375H82.2656V18.6602H83.5781L83.6367 19.3047C84.0547 18.7969 84.623 18.543 85.3418 18.543C86.1152 18.543 86.7207 18.832 87.1582 19.4102C87.5996 19.9844 87.8203 20.7832 87.8203 21.8066V21.8945ZM86.4023 21.7715C86.4023 21.1387 86.2754 20.6367 86.0215 20.2656C85.7715 19.8945 85.4121 19.709 84.9434 19.709C84.3613 19.709 83.9434 19.9492 83.6895 20.4297V23.2422C83.9473 23.7344 84.3691 23.9805 84.9551 23.9805C85.4082 23.9805 85.7617 23.7988 86.0156 23.4355C86.2734 23.0684 86.4023 22.5137 86.4023 21.7715ZM92.584 23.2773C92.584 23.0234 92.4785 22.8301 92.2676 22.6973C92.0605 22.5645 91.7148 22.4473 91.2305 22.3457C90.7461 22.2441 90.3418 22.1152 90.0176 21.959C89.3066 21.6152 88.9512 21.1172 88.9512 20.4648C88.9512 19.918 89.1816 19.4609 89.6426 19.0938C90.1035 18.7266 90.6895 18.543 91.4004 18.543C92.1582 18.543 92.7695 18.7305 93.2344 19.1055C93.7031 19.4805 93.9375 19.9668 93.9375 20.5645H92.5137C92.5137 20.291 92.4121 20.0645 92.209 19.8848C92.0059 19.7012 91.7363 19.6094 91.4004 19.6094C91.0879 19.6094 90.832 19.6816 90.6328 19.8262C90.4375 19.9707 90.3398 20.1641 90.3398 20.4062C90.3398 20.625 90.4316 20.7949 90.6152 20.916C90.7988 21.0371 91.1699 21.1602 91.7285 21.2852C92.2871 21.4062 92.7246 21.5527 93.041 21.7246C93.3613 21.8926 93.5977 22.0957 93.75 22.334C93.9062 22.5723 93.9844 22.8613 93.9844 23.2012C93.9844 23.7715 93.748 24.2344 93.2754 24.5898C92.8027 24.9414 92.1836 25.1172 91.418 25.1172C90.8984 25.1172 90.4355 25.0234 90.0293 24.8359C89.623 24.6484 89.3066 24.3906 89.0801 24.0625C88.8535 23.7344 88.7402 23.3809 88.7402 23.002H90.123C90.1426 23.3379 90.2695 23.5977 90.5039 23.7812C90.7383 23.9609 91.0488 24.0508 91.4355 24.0508C91.8105 24.0508 92.0957 23.9805 92.291 23.8398C92.4863 23.6953 92.584 23.5078 92.584 23.2773ZM96.75 23.8633H100.125V25H94.9805V24.0684L98.1973 19.8086H95.0391V18.6602H100.002V19.5625L96.75 23.8633ZM105.053 25C104.99 24.8789 104.936 24.6816 104.889 24.4082C104.436 24.8809 103.881 25.1172 103.225 25.1172C102.588 25.1172 102.068 24.9355 101.666 24.5723C101.264 24.209 101.062 23.7598 101.062 23.2246C101.062 22.5488 101.312 22.0312 101.812 21.6719C102.316 21.3086 103.035 21.127 103.969 21.127H104.842V20.7109C104.842 20.3828 104.75 20.1211 104.566 19.9258C104.383 19.7266 104.104 19.627 103.729 19.627C103.404 19.627 103.139 19.709 102.932 19.873C102.725 20.0332 102.621 20.2383 102.621 20.4883H101.197C101.197 20.1406 101.312 19.8164 101.543 19.5156C101.773 19.2109 102.086 18.9727 102.48 18.8008C102.879 18.6289 103.322 18.543 103.811 18.543C104.553 18.543 105.145 18.7305 105.586 19.1055C106.027 19.4766 106.254 20 106.266 20.6758V23.5352C106.266 24.1055 106.346 24.5605 106.506 24.9004V25H105.053ZM103.488 23.9746C103.77 23.9746 104.033 23.9062 104.279 23.7695C104.529 23.6328 104.717 23.4492 104.842 23.2188V22.0234H104.074C103.547 22.0234 103.15 22.1152 102.885 22.2988C102.619 22.4824 102.486 22.7422 102.486 23.0781C102.486 23.3516 102.576 23.5703 102.756 23.7344C102.939 23.8945 103.184 23.9746 103.488 23.9746ZM112.23 18.6602V25.5625C112.23 26.2109 112.068 26.7051 111.744 27.0449C111.424 27.3887 110.953 27.5605 110.332 27.5605C110.07 27.5605 109.818 27.5273 109.576 27.4609V26.3359C109.725 26.3711 109.893 26.3887 110.08 26.3887C110.553 26.3887 110.795 26.1309 110.807 25.6152V18.6602H112.23ZM110.684 17.0137C110.684 16.7949 110.752 16.6133 110.889 16.4688C111.029 16.3242 111.229 16.252 111.486 16.252C111.744 16.252 111.943 16.3242 112.084 16.4688C112.225 16.6133 112.295 16.7949 112.295 17.0137C112.295 17.2285 112.225 17.4082 112.084 17.5527C111.943 17.6934 111.744 17.7637 111.486 17.7637C111.229 17.7637 111.029 17.6934 110.889 17.5527C110.752 17.4082 110.684 17.2285 110.684 17.0137ZM117.545 25C117.482 24.8789 117.428 24.6816 117.381 24.4082C116.928 24.8809 116.373 25.1172 115.717 25.1172C115.08 25.1172 114.561 24.9355 114.158 24.5723C113.756 24.209 113.555 23.7598 113.555 23.2246C113.555 22.5488 113.805 22.0312 114.305 21.6719C114.809 21.3086 115.527 21.127 116.461 21.127H117.334V20.7109C117.334 20.3828 117.242 20.1211 117.059 19.9258C116.875 19.7266 116.596 19.627 116.221 19.627C115.896 19.627 115.631 19.709 115.424 19.873C115.217 20.0332 115.113 20.2383 115.113 20.4883H113.689C113.689 20.1406 113.805 19.8164 114.035 19.5156C114.266 19.2109 114.578 18.9727 114.973 18.8008C115.371 18.6289 115.814 18.543 116.303 18.543C117.045 18.543 117.637 18.7305 118.078 19.1055C118.52 19.4766 118.746 20 118.758 20.6758V23.5352C118.758 24.1055 118.838 24.5605 118.998 24.9004V25H117.545ZM115.98 23.9746C116.262 23.9746 116.525 23.9062 116.771 23.7695C117.021 23.6328 117.209 23.4492 117.334 23.2188V22.0234H116.566C116.039 22.0234 115.643 22.1152 115.377 22.2988C115.111 22.4824 114.979 22.7422 114.979 23.0781C114.979 23.3516 115.068 23.5703 115.248 23.7344C115.432 23.8945 115.676 23.9746 115.98 23.9746ZM122.309 22.2812L121.676 22.9316V25H120.252V16H121.676V21.1914L122.121 20.6348L123.873 18.6602H125.584L123.229 21.3027L125.836 25H124.189L122.309 22.2812ZM126.252 21.7715C126.252 21.1504 126.375 20.5918 126.621 20.0957C126.867 19.5957 127.213 19.2129 127.658 18.9473C128.104 18.6777 128.615 18.543 129.193 18.543C130.049 18.543 130.742 18.8184 131.273 19.3691C131.809 19.9199 132.098 20.6504 132.141 21.5605L132.146 21.8945C132.146 22.5195 132.025 23.0781 131.783 23.5703C131.545 24.0625 131.201 24.4434 130.752 24.7129C130.307 24.9824 129.791 25.1172 129.205 25.1172C128.311 25.1172 127.594 24.8203 127.055 24.2266C126.52 23.6289 126.252 22.834 126.252 21.8418V21.7715ZM127.676 21.8945C127.676 22.5469 127.811 23.0586 128.08 23.4297C128.35 23.7969 128.725 23.9805 129.205 23.9805C129.686 23.9805 130.059 23.793 130.324 23.418C130.594 23.043 130.729 22.4941 130.729 21.7715C130.729 21.1309 130.59 20.623 130.312 20.248C130.039 19.873 129.666 19.6855 129.193 19.6855C128.729 19.6855 128.359 19.8711 128.086 20.2422C127.812 20.6094 127.676 21.1602 127.676 21.8945ZM136.904 23.2773C136.904 23.0234 136.799 22.8301 136.588 22.6973C136.381 22.5645 136.035 22.4473 135.551 22.3457C135.066 22.2441 134.662 22.1152 134.338 21.959C133.627 21.6152 133.271 21.1172 133.271 20.4648C133.271 19.918 133.502 19.4609 133.963 19.0938C134.424 18.7266 135.01 18.543 135.721 18.543C136.479 18.543 137.09 18.7305 137.555 19.1055C138.023 19.4805 138.258 19.9668 138.258 20.5645H136.834C136.834 20.291 136.732 20.0645 136.529 19.8848C136.326 19.7012 136.057 19.6094 135.721 19.6094C135.408 19.6094 135.152 19.6816 134.953 19.8262C134.758 19.9707 134.66 20.1641 134.66 20.4062C134.66 20.625 134.752 20.7949 134.936 20.916C135.119 21.0371 135.49 21.1602 136.049 21.2852C136.607 21.4062 137.045 21.5527 137.361 21.7246C137.682 21.8926 137.918 22.0957 138.07 22.334C138.227 22.5723 138.305 22.8613 138.305 23.2012C138.305 23.7715 138.068 24.2344 137.596 24.5898C137.123 24.9414 136.504 25.1172 135.738 25.1172C135.219 25.1172 134.756 25.0234 134.35 24.8359C133.943 24.6484 133.627 24.3906 133.4 24.0625C133.174 23.7344 133.061 23.3809 133.061 23.002H134.443C134.463 23.3379 134.59 23.5977 134.824 23.7812C135.059 23.9609 135.369 24.0508 135.756 24.0508C136.131 24.0508 136.416 23.9805 136.611 23.8398C136.807 23.6953 136.904 23.5078 136.904 23.2773ZM136.26 16H137.883L136.26 17.7754H135.117L136.26 16ZM142.154 23.9805C142.51 23.9805 142.805 23.877 143.039 23.6699C143.273 23.4629 143.398 23.207 143.414 22.9023H144.756C144.74 23.2969 144.617 23.666 144.387 24.0098C144.156 24.3496 143.844 24.6191 143.449 24.8184C143.055 25.0176 142.629 25.1172 142.172 25.1172C141.285 25.1172 140.582 24.8301 140.062 24.2559C139.543 23.6816 139.283 22.8887 139.283 21.877V21.7305C139.283 20.7656 139.541 19.9941 140.057 19.416C140.572 18.834 141.275 18.543 142.166 18.543C142.92 18.543 143.533 18.7637 144.006 19.2051C144.482 19.6426 144.732 20.2188 144.756 20.9336H143.414C143.398 20.5703 143.273 20.2715 143.039 20.0371C142.809 19.8027 142.514 19.6855 142.154 19.6855C141.693 19.6855 141.338 19.8535 141.088 20.1895C140.838 20.5215 140.711 21.0273 140.707 21.707V21.9355C140.707 22.623 140.83 23.1367 141.076 23.4766C141.326 23.8125 141.686 23.9805 142.154 23.9805ZM142.359 16H143.982L142.359 17.7754H141.217L142.359 16Z" fill="#1B2734"/>
<path d="M60.2988 43H54.709V42.2207L57.6621 38.9395C58.0996 38.4434 58.4004 38.041 58.5645 37.7324C58.7324 37.4199 58.8164 37.0977 58.8164 36.7656C58.8164 36.3203 58.6816 35.9551 58.4121 35.6699C58.1426 35.3848 57.7832 35.2422 57.334 35.2422C56.7949 35.2422 56.375 35.3965 56.0742 35.7051C55.7773 36.0098 55.6289 36.4355 55.6289 36.9824H54.5449C54.5449 36.1973 54.7969 35.5625 55.3008 35.0781C55.8086 34.5938 56.4863 34.3516 57.334 34.3516C58.127 34.3516 58.7539 34.5605 59.2148 34.9785C59.6758 35.3926 59.9062 35.9453 59.9062 36.6367C59.9062 37.4766 59.3711 38.4766 58.3008 39.6367L56.0156 42.1152H60.2988V43ZM66.7969 39.3613C66.7969 40.6309 66.5801 41.5742 66.1465 42.1914C65.7129 42.8086 65.0352 43.1172 64.1133 43.1172C63.2031 43.1172 62.5293 42.8164 62.0918 42.2148C61.6543 41.6094 61.4277 40.707 61.4121 39.5078V38.0605C61.4121 36.8066 61.6289 35.875 62.0625 35.2656C62.4961 34.6562 63.1758 34.3516 64.1016 34.3516C65.0195 34.3516 65.6953 34.6465 66.1289 35.2363C66.5625 35.8223 66.7852 36.7285 66.7969 37.9551V39.3613ZM65.7129 37.8789C65.7129 36.9609 65.584 36.293 65.3262 35.875C65.0684 35.4531 64.6602 35.2422 64.1016 35.2422C63.5469 35.2422 63.1426 35.4512 62.8887 35.8691C62.6348 36.2871 62.5039 36.9297 62.4961 37.7969V39.5312C62.4961 40.4531 62.6289 41.1348 62.8945 41.5762C63.1641 42.0137 63.5703 42.2324 64.1133 42.2324C64.6484 42.2324 65.0449 42.0254 65.3027 41.6113C65.5645 41.1973 65.7012 40.5449 65.7129 39.6543V37.8789ZM73.7754 43H68.1855V42.2207L71.1387 38.9395C71.5762 38.4434 71.877 38.041 72.041 37.7324C72.209 37.4199 72.293 37.0977 72.293 36.7656C72.293 36.3203 72.1582 35.9551 71.8887 35.6699C71.6191 35.3848 71.2598 35.2422 70.8105 35.2422C70.2715 35.2422 69.8516 35.3965 69.5508 35.7051C69.2539 36.0098 69.1055 36.4355 69.1055 36.9824H68.0215C68.0215 36.1973 68.2734 35.5625 68.7773 35.0781C69.2852 34.5938 69.9629 34.3516 70.8105 34.3516C71.6035 34.3516 72.2305 34.5605 72.6914 34.9785C73.1523 35.3926 73.3828 35.9453 73.3828 36.6367C73.3828 37.4766 72.8477 38.4766 71.7773 39.6367L69.4922 42.1152H73.7754V43ZM76.5 38.207H77.3145C77.8262 38.1992 78.2285 38.0645 78.5215 37.8027C78.8145 37.541 78.9609 37.1875 78.9609 36.7422C78.9609 35.7422 78.4629 35.2422 77.4668 35.2422C76.998 35.2422 76.623 35.377 76.3418 35.6465C76.0645 35.9121 75.9258 36.2656 75.9258 36.707H74.8418C74.8418 36.0312 75.0879 35.4707 75.5801 35.0254C76.0762 34.5762 76.7051 34.3516 77.4668 34.3516C78.2715 34.3516 78.9023 34.5645 79.3594 34.9902C79.8164 35.416 80.0449 36.0078 80.0449 36.7656C80.0449 37.1367 79.9238 37.4961 79.6816 37.8438C79.4434 38.1914 79.1172 38.4512 78.7031 38.623C79.1719 38.7715 79.5332 39.0176 79.7871 39.3613C80.0449 39.7051 80.1738 40.125 80.1738 40.6211C80.1738 41.3867 79.9238 41.9941 79.4238 42.4434C78.9238 42.8926 78.2734 43.1172 77.4727 43.1172C76.6719 43.1172 76.0195 42.9004 75.5156 42.4668C75.0156 42.0332 74.7656 41.4609 74.7656 40.75H75.8555C75.8555 41.1992 76.002 41.5586 76.2949 41.8281C76.5879 42.0977 76.9805 42.2324 77.4727 42.2324C77.9961 42.2324 78.3965 42.0957 78.6738 41.8223C78.9512 41.5488 79.0898 41.1562 79.0898 40.6445C79.0898 40.1484 78.9375 39.7676 78.6328 39.502C78.3281 39.2363 77.8887 39.0996 77.3145 39.0918H76.5V38.207Z" fill="#627282"/>
</svg>
